<?xml version="1.0" encoding="UTF-8"?>
<svg id="Capa_2" data-name="Capa 2" xmlns="http://www.w3.org/2000/svg" viewBox="0 0 23.35 17.77">
  <defs>
    <style>
      .cls-1 {
        fill: #1085e5;
        stroke-width: 0px;
      }
    </style>
  </defs>
  <g id="Capa_1-2" data-name="Capa 1">
    <g>
      <path class="cls-1" d="M20.5,0H2.85C1.28,0,0,1.28,0,2.85v12.06c0,1.58,1.28,2.86,2.85,2.86h17.64c1.58,0,2.85-1.28,2.85-2.86V2.86c0-1.58-1.27-2.86-2.85-2.86M22.05,14.91c0,.86-.7,1.55-1.55,1.55H2.85c-.85,0-1.55-.7-1.55-1.55V2.86c0-.86.7-1.55,1.55-1.55h17.64c.85,0,1.55.7,1.55,1.55v12.05h0Z"/>
      <path class="cls-1" d="M14.73,8.74l5.71-5.12c.27-.24.29-.65.05-.92-.24-.27-.65-.29-.92-.05l-7.88,7.07-1.54-1.37s-.01,0-.01-.01c-.03-.03-.07-.06-.11-.09L3.78,2.64c-.27-.24-.68-.22-.92.05-.24.27-.22.68.05.92l5.78,5.16-5.75,5.39c-.26.25-.28.66-.03.92.13.14.3.21.48.21.16,0,.32-.06.44-.17l5.84-5.46,1.58,1.41c.13.11.28.17.43.17s.31-.06.43-.17l1.63-1.46,5.81,5.52c.12.12.29.18.45.18.17,0,.34-.07.47-.2.25-.26.24-.68-.02-.92l-5.74-5.45Z"/>
    </g>
  </g>
</svg>