<?xml version="1.0" encoding="UTF-8"?>
<svg id="Capa_2" data-name="Capa 2" xmlns="http://www.w3.org/2000/svg" viewBox="0 0 163.35 163.35">
  <defs>
    <style>
      .cls-1 {
        fill: #fff;
        stroke-width: 0px;
      }
    </style>
  </defs>
  <g id="Capa_1-2" data-name="Capa 1">
    <path class="cls-1" d="M0,90.03c0-5.57,0-11.13,0-16.7.21-.67.52-1.33.62-2.02C4.92,42.11,20.49,21.12,46.71,7.86c8.84-4.47,18.37-6.48,28.07-7.86,5.08,0,10.16,0,15.25,0,.54.21,1.07.54,1.63.61,33.59,4.27,61.02,28.4,69.3,61.09.97,3.83,1.6,7.75,2.39,11.63v16.7c-.47,2.33-.94,4.67-1.4,7-4.5,22.73-16.74,40.23-35.83,53.39-.69-.94-1.29-1.68-1.81-2.46-13.11-19.86-26.2-39.72-39.31-59.58-7.59-11.49-15.29-22.9-22.77-34.46-2.36-3.65-5.7-2.69-8.76-2.29-3.19.41-2.52,3.33-2.52,5.55-.03,19.23-.05,38.46-.05,57.69,0,4.12.79,4.88,4.84,4.9,4.54.02,5.18-.53,5.2-4.87.06-13.43.09-26.85.13-40.28,0-1.23,0-2.47,0-4.38,19.93,28.37,39.32,55.99,59.09,84.13-5.53,2.01-11.1,4.28-16.83,6.03-4.34,1.33-8.87,1.99-13.32,2.95h-16.7c-.55-.21-1.08-.52-1.65-.6-31.49-4.61-53.51-21.68-65.8-50.88-2.9-6.89-3.97-14.54-5.88-21.84ZM110.84,108.4l.77-.33c0-17.97.02-35.94-.02-53.91,0-4.31-.9-5.1-5.12-5.09-4.25,0-5.07.69-5.11,5.06-.12,12.56-.14,25.11-.15,37.67,0,.93.11,2.02.58,2.77,2.95,4.65,6.01,9.23,9.04,13.84Z"/>
  </g>
</svg>